<svg xmlns="http://www.w3.org/2000/svg" width="486" height="550" viewBox="0 0 486 550" role="img" aria-label="stage_ai2_03 / seven / seed 40707528">
<rect width="486" height="550" fill="#0f172a"/>
<text x="18" y="20" fill="#e5e7eb" font-family="Menlo, Consolas, monospace" font-size="12">stage_ai2_03 / seven / seed 40707528</text>
<text x="18" y="32" fill="#94a3b8" font-family="Menlo, Consolas, monospace" font-size="9">pegs:38 pockets:9 events:3 roulettes:1</text>
<rect x="18" y="52" width="450" height="480" fill="#020617" stroke="#334155" stroke-width="1"/>
<ellipse cx="243" cy="292" rx="225" ry="240" fill="none" stroke="#22d3ee" stroke-width="2" opacity="0.8"/>
<line x1="123" y1="493" x2="141" y2="466" stroke="#64748b" stroke-width="2.5" stroke-linecap="round"/>
<line x1="138" y1="466" x2="102" y2="433" stroke="#22d3ee" stroke-width="2.5" stroke-linecap="round"/>
<line x1="102" y1="433" x2="81" y2="397" stroke="#22d3ee" stroke-width="2.5" stroke-linecap="round"/>
<line x1="81" y1="397" x2="66" y2="352" stroke="#22d3ee" stroke-width="2.5" stroke-linecap="round"/>
<line x1="66" y1="352" x2="57" y2="295" stroke="#22d3ee" stroke-width="2.5" stroke-linecap="round"/>
<line x1="57" y1="295" x2="57" y2="247" stroke="#22d3ee" stroke-width="2.5" stroke-linecap="round"/>
<line x1="57" y1="247" x2="75" y2="199" stroke="#22d3ee" stroke-width="2.5" stroke-linecap="round"/>
<line x1="75" y1="199" x2="93" y2="166" stroke="#22d3ee" stroke-width="2.5" stroke-linecap="round"/>
<line x1="384" y1="166" x2="417" y2="136" stroke="#ef4444" stroke-width="2.5" stroke-linecap="round"/>
<circle cx="162" cy="181" r="13.5" fill="#fb923c" opacity="0.92"/>
<circle cx="324" cy="181" r="13.5" fill="#fb923c" opacity="0.92"/>
<circle cx="216" cy="443.5" r="5.4" fill="#f59e0b" opacity="0.92"/>
<circle cx="270" cy="443.5" r="5.4" fill="#f59e0b" opacity="0.92"/>
<circle cx="153" cy="274" r="4.199999999999999" fill="#d1d5db" opacity="0.92"/>
<circle cx="333" cy="274" r="4.199999999999999" fill="#d1d5db" opacity="0.92"/>
<circle cx="164.10000000000002" cy="306.1" r="4.199999999999999" fill="#d1d5db" opacity="0.92"/>
<circle cx="321.9" cy="306.1" r="4.199999999999999" fill="#d1d5db" opacity="0.92"/>
<circle cx="231.60000000000002" cy="289.9" r="4.199999999999999" fill="#d1d5db" opacity="0.92"/>
<circle cx="254.39999999999998" cy="289.9" r="4.199999999999999" fill="#d1d5db" opacity="0.92"/>
<circle cx="220.5" cy="322" r="4.199999999999999" fill="#d1d5db" opacity="0.92"/>
<circle cx="265.5" cy="322" r="4.199999999999999" fill="#d1d5db" opacity="0.92"/>
<circle cx="201" cy="301" r="4.199999999999999" fill="#d1d5db" opacity="0.92"/>
<circle cx="285" cy="301" r="4.199999999999999" fill="#d1d5db" opacity="0.92"/>
<circle cx="160.5" cy="373" r="4.199999999999999" fill="#d1d5db" opacity="0.92"/>
<circle cx="325.5" cy="373" r="4.199999999999999" fill="#d1d5db" opacity="0.92"/>
<circle cx="222.60000000000002" cy="81.70000000000002" r="3.9000000000000004" fill="#d1d5db" opacity="0.92"/>
<circle cx="263.4" cy="81.70000000000002" r="3.9000000000000004" fill="#d1d5db" opacity="0.92"/>
<circle cx="194.7" cy="87.09999999999997" r="3.9000000000000004" fill="#d1d5db" opacity="0.92"/>
<circle cx="291.29999999999995" cy="87.09999999999997" r="3.9000000000000004" fill="#d1d5db" opacity="0.92"/>
<circle cx="167.7" cy="96.70000000000002" r="3.9000000000000004" fill="#d1d5db" opacity="0.92"/>
<circle cx="318.29999999999995" cy="96.70000000000002" r="3.9000000000000004" fill="#d1d5db" opacity="0.92"/>
<circle cx="142.5" cy="110.20000000000002" r="3.9000000000000004" fill="#d1d5db" opacity="0.92"/>
<circle cx="343.5" cy="110.20000000000002" r="3.9000000000000004" fill="#d1d5db" opacity="0.92"/>
<circle cx="201" cy="108.70000000000002" r="3.9000000000000004" fill="#d1d5db" opacity="0.92"/>
<circle cx="285" cy="108.70000000000002" r="3.9000000000000004" fill="#d1d5db" opacity="0.92"/>
<circle cx="169.5" cy="120.70000000000002" r="3.9000000000000004" fill="#d1d5db" opacity="0.92"/>
<circle cx="316.5" cy="120.70000000000002" r="3.9000000000000004" fill="#d1d5db" opacity="0.92"/>
<circle cx="140.7" cy="139" r="3.9000000000000004" fill="#d1d5db" opacity="0.92"/>
<circle cx="345.29999999999995" cy="139" r="3.9000000000000004" fill="#d1d5db" opacity="0.92"/>
<circle cx="177" cy="224.79999999999998" r="3.9000000000000004" fill="#d1d5db" opacity="0.92"/>
<circle cx="309" cy="224.79999999999998" r="3.9000000000000004" fill="#d1d5db" opacity="0.92"/>
<circle cx="177" cy="258.4" r="3.9000000000000004" fill="#d1d5db" opacity="0.92"/>
<circle cx="309" cy="258.4" r="3.9000000000000004" fill="#d1d5db" opacity="0.92"/>
<circle cx="219" cy="386.79999999999995" r="3.9000000000000004" fill="#d1d5db" opacity="0.92"/>
<circle cx="267" cy="386.79999999999995" r="3.9000000000000004" fill="#d1d5db" opacity="0.92"/>
<circle cx="135" cy="349" r="3.9000000000000004" fill="#d1d5db" opacity="0.92"/>
<circle cx="351" cy="349" r="3.9000000000000004" fill="#d1d5db" opacity="0.92"/>
<circle cx="243" cy="526" r="36" fill="#111827" opacity="0.08"/>
<circle cx="243" cy="526" r="24" fill="#111827" opacity="0.55" stroke="#111827" stroke-width="1.5"/>
<circle cx="120" cy="475" r="33" fill="#60a5fa" opacity="0.08"/>
<circle cx="120" cy="475" r="16.5" fill="#60a5fa" opacity="0.55" stroke="#60a5fa" stroke-width="1.5"/>
<circle cx="243" cy="454" r="36" fill="#ec4899" opacity="0.08"/>
<circle cx="243" cy="454" r="19.5" fill="#ec4899" opacity="0.55" stroke="#ec4899" stroke-width="1.5"/>
<text x="248" y="449" fill="#f8fafc" font-family="Menlo, Consolas, monospace" font-size="7">attacker</text>
<circle cx="183" cy="469" r="27" fill="#facc15" opacity="0.08"/>
<circle cx="183" cy="469" r="13.5" fill="#facc15" opacity="0.55" stroke="#facc15" stroke-width="1.5"/>
<circle cx="303" cy="469" r="27" fill="#facc15" opacity="0.08"/>
<circle cx="303" cy="469" r="13.5" fill="#facc15" opacity="0.55" stroke="#facc15" stroke-width="1.5"/>
<circle cx="135" cy="403" r="30" fill="#ec4899" opacity="0.08"/>
<circle cx="135" cy="403" r="15" fill="#ec4899" opacity="0.55" stroke="#ec4899" stroke-width="1.5"/>
<text x="140" y="398" fill="#f8fafc" font-family="Menlo, Consolas, monospace" font-size="7">tulip_L</text>
<circle cx="351" cy="403" r="30" fill="#ec4899" opacity="0.08"/>
<circle cx="351" cy="403" r="15" fill="#ec4899" opacity="0.55" stroke="#ec4899" stroke-width="1.5"/>
<text x="356" y="398" fill="#f8fafc" font-family="Menlo, Consolas, monospace" font-size="7">tulip_R</text>
<circle cx="195" cy="352" r="30" fill="#22c55e" opacity="0.08"/>
<circle cx="195" cy="352" r="15" fill="#22c55e" opacity="0.55" stroke="#22c55e" stroke-width="1.5"/>
<text x="200" y="347" fill="#f8fafc" font-family="Menlo, Consolas, monospace" font-size="7">go_side_L</text>
<circle cx="291" cy="352" r="30" fill="#22c55e" opacity="0.08"/>
<circle cx="291" cy="352" r="15" fill="#22c55e" opacity="0.55" stroke="#22c55e" stroke-width="1.5"/>
<text x="296" y="347" fill="#f8fafc" font-family="Menlo, Consolas, monospace" font-size="7">go_side_R</text>
<rect x="198" y="215.5" width="90" height="39" rx="3" fill="#111827" stroke="#f97316" stroke-width="2"/>
<text x="243" y="239" text-anchor="middle" fill="#fed7aa" font-family="Menlo, Consolas, monospace" font-size="12" font-weight="700">777</text>
<circle cx="81" cy="454" r="8.399999999999999" fill="#38bdf8" stroke="#e0f2fe" stroke-width="1.5"/>
<line x1="81" y1="454" x2="72" y2="438.4115427318801" stroke="#38bdf8" stroke-width="2" marker-end="url(#arrow)"/>
<defs><marker id="arrow" viewBox="0 0 10 10" refX="9" refY="5" markerWidth="4" markerHeight="4" orient="auto-start-reverse"><path d="M 0 0 L 10 5 L 0 10 z" fill="#38bdf8"/></marker></defs>
</svg>
