<svg xmlns="http://www.w3.org/2000/svg" width="486" height="550" viewBox="0 0 486 550" role="img" aria-label="stage_ai3_03 / seven / seed 60707273">
<rect width="486" height="550" fill="#0f172a"/>
<text x="18" y="20" fill="#e5e7eb" font-family="Menlo, Consolas, monospace" font-size="12">stage_ai3_03 / seven / seed 60707273</text>
<text x="18" y="32" fill="#94a3b8" font-family="Menlo, Consolas, monospace" font-size="9">pegs:45 pockets:9 events:3 roulettes:1</text>
<rect x="18" y="52" width="450" height="480" fill="#020617" stroke="#334155" stroke-width="1"/>
<ellipse cx="243" cy="292" rx="225" ry="240" fill="none" stroke="#22d3ee" stroke-width="2" opacity="0.8"/>
<line x1="123" y1="493" x2="141" y2="466" stroke="#64748b" stroke-width="2.5" stroke-linecap="round"/>
<line x1="138" y1="466" x2="102" y2="433" stroke="#22d3ee" stroke-width="2.5" stroke-linecap="round"/>
<line x1="102" y1="433" x2="81" y2="397" stroke="#22d3ee" stroke-width="2.5" stroke-linecap="round"/>
<line x1="81" y1="397" x2="66" y2="352" stroke="#22d3ee" stroke-width="2.5" stroke-linecap="round"/>
<line x1="66" y1="352" x2="57" y2="295" stroke="#22d3ee" stroke-width="2.5" stroke-linecap="round"/>
<line x1="57" y1="295" x2="57" y2="247" stroke="#22d3ee" stroke-width="2.5" stroke-linecap="round"/>
<line x1="57" y1="247" x2="75" y2="199" stroke="#22d3ee" stroke-width="2.5" stroke-linecap="round"/>
<line x1="75" y1="199" x2="93" y2="166" stroke="#22d3ee" stroke-width="2.5" stroke-linecap="round"/>
<line x1="384" y1="166" x2="417" y2="136" stroke="#ef4444" stroke-width="2.5" stroke-linecap="round"/>
<line x1="120" y1="283" x2="204" y2="298" stroke="#22d3ee" stroke-width="2.5" stroke-linecap="round"/>
<line x1="366" y1="283" x2="282" y2="298" stroke="#22d3ee" stroke-width="2.5" stroke-linecap="round"/>
<line x1="384" y1="289" x2="348" y2="322" stroke="#22d3ee" stroke-width="2.5" stroke-linecap="round"/>
<line x1="372" y1="211" x2="336" y2="244" stroke="#22d3ee" stroke-width="2.5" stroke-linecap="round"/>
<circle cx="271.5" cy="443.5" r="5.4" fill="#f59e0b" opacity="0.92"/>
<circle cx="214.5" cy="443.5" r="5.4" fill="#f59e0b" opacity="0.92"/>
<circle cx="324" cy="460" r="4.5" fill="#f59e0b" opacity="0.92"/>
<circle cx="162" cy="460" r="4.5" fill="#f59e0b" opacity="0.92"/>
<circle cx="168" cy="394" r="4.5" fill="#f59e0b" opacity="0.92"/>
<circle cx="126" cy="394" r="4.5" fill="#f59e0b" opacity="0.92"/>
<circle cx="159" cy="370" r="3.9000000000000004" fill="#d1d5db" opacity="0.92"/>
<circle cx="135" cy="370" r="3.9000000000000004" fill="#d1d5db" opacity="0.92"/>
<circle cx="318" cy="394" r="4.5" fill="#f59e0b" opacity="0.92"/>
<circle cx="360" cy="394" r="4.5" fill="#f59e0b" opacity="0.92"/>
<circle cx="327" cy="370" r="3.9000000000000004" fill="#d1d5db" opacity="0.92"/>
<circle cx="351" cy="370" r="3.9000000000000004" fill="#d1d5db" opacity="0.92"/>
<circle cx="216" cy="346" r="4.5" fill="#f59e0b" opacity="0.92"/>
<circle cx="174" cy="346" r="4.5" fill="#f59e0b" opacity="0.92"/>
<circle cx="225" cy="319" r="4.199999999999999" fill="#d1d5db" opacity="0.92"/>
<circle cx="165" cy="319" r="4.199999999999999" fill="#d1d5db" opacity="0.92"/>
<circle cx="270" cy="346" r="4.5" fill="#f59e0b" opacity="0.92"/>
<circle cx="312" cy="346" r="4.5" fill="#f59e0b" opacity="0.92"/>
<circle cx="261" cy="319" r="4.199999999999999" fill="#d1d5db" opacity="0.92"/>
<circle cx="321" cy="319" r="4.199999999999999" fill="#d1d5db" opacity="0.92"/>
<circle cx="171" cy="178" r="13.5" fill="#fb923c" opacity="0.92"/>
<circle cx="183" cy="145" r="3.9000000000000004" fill="#d1d5db" opacity="0.92"/>
<circle cx="196.5" cy="125.5" r="3.9000000000000004" fill="#d1d5db" opacity="0.92"/>
<circle cx="159" cy="145" r="3.9000000000000004" fill="#d1d5db" opacity="0.92"/>
<circle cx="145.5" cy="125.5" r="3.9000000000000004" fill="#d1d5db" opacity="0.92"/>
<circle cx="315" cy="178" r="13.5" fill="#fb923c" opacity="0.92"/>
<circle cx="303" cy="145" r="3.9000000000000004" fill="#d1d5db" opacity="0.92"/>
<circle cx="289.5" cy="125.5" r="3.9000000000000004" fill="#d1d5db" opacity="0.92"/>
<circle cx="327" cy="145" r="3.9000000000000004" fill="#d1d5db" opacity="0.92"/>
<circle cx="340.5" cy="125.5" r="3.9000000000000004" fill="#d1d5db" opacity="0.92"/>
<circle cx="309" cy="245.5" r="3.9000000000000004" fill="#d1d5db" opacity="0.92"/>
<circle cx="309" cy="218.5" r="3.9000000000000004" fill="#d1d5db" opacity="0.92"/>
<circle cx="177" cy="245.5" r="3.9000000000000004" fill="#d1d5db" opacity="0.92"/>
<circle cx="177" cy="218.5" r="3.9000000000000004" fill="#d1d5db" opacity="0.92"/>
<circle cx="120" cy="262" r="3.9000000000000004" fill="#d1d5db" opacity="0.92"/>
<circle cx="366" cy="262" r="3.9000000000000004" fill="#d1d5db" opacity="0.92"/>
<circle cx="219" cy="382" r="3.9000000000000004" fill="#d1d5db" opacity="0.92"/>
<circle cx="243" cy="382" r="3.9000000000000004" fill="#d1d5db" opacity="0.92"/>
<circle cx="267" cy="382" r="3.9000000000000004" fill="#d1d5db" opacity="0.92"/>
<circle cx="222.46015696790613" cy="81.6586191296102" r="3.9000000000000004" fill="#d1d5db" opacity="0.92"/>
<circle cx="263.53984303209387" cy="81.6586191296102" r="3.9000000000000004" fill="#d1d5db" opacity="0.92"/>
<circle cx="185.54896002198225" cy="89.74154411381801" r="3.9000000000000004" fill="#d1d5db" opacity="0.92"/>
<circle cx="300.4510399780178" cy="89.74154411381801" r="3.9000000000000004" fill="#d1d5db" opacity="0.92"/>
<circle cx="168.0910691553566" cy="121.41138125787634" r="3.9000000000000004" fill="#d1d5db" opacity="0.92"/>
<circle cx="317.9089308446434" cy="121.41138125787634" r="3.9000000000000004" fill="#d1d5db" opacity="0.92"/>
<circle cx="243" cy="526" r="36" fill="#111827" opacity="0.08"/>
<circle cx="243" cy="526" r="24" fill="#111827" opacity="0.55" stroke="#111827" stroke-width="1.5"/>
<circle cx="120" cy="475" r="33" fill="#60a5fa" opacity="0.08"/>
<circle cx="120" cy="475" r="16.5" fill="#60a5fa" opacity="0.55" stroke="#60a5fa" stroke-width="1.5"/>
<circle cx="243" cy="454" r="36" fill="#ec4899" opacity="0.08"/>
<circle cx="243" cy="454" r="19.5" fill="#ec4899" opacity="0.55" stroke="#ec4899" stroke-width="1.5"/>
<text x="248" y="449" fill="#f8fafc" font-family="Menlo, Consolas, monospace" font-size="7">attacker</text>
<circle cx="183" cy="469" r="27" fill="#facc15" opacity="0.08"/>
<circle cx="183" cy="469" r="13.5" fill="#facc15" opacity="0.55" stroke="#facc15" stroke-width="1.5"/>
<circle cx="303" cy="469" r="27" fill="#facc15" opacity="0.08"/>
<circle cx="303" cy="469" r="13.5" fill="#facc15" opacity="0.55" stroke="#facc15" stroke-width="1.5"/>
<circle cx="147" cy="406" r="30" fill="#ec4899" opacity="0.08"/>
<circle cx="147" cy="406" r="15" fill="#ec4899" opacity="0.55" stroke="#ec4899" stroke-width="1.5"/>
<text x="152" y="401" fill="#f8fafc" font-family="Menlo, Consolas, monospace" font-size="7">tulip_L</text>
<circle cx="339" cy="406" r="30" fill="#ec4899" opacity="0.08"/>
<circle cx="339" cy="406" r="15" fill="#ec4899" opacity="0.55" stroke="#ec4899" stroke-width="1.5"/>
<text x="344" y="401" fill="#f8fafc" font-family="Menlo, Consolas, monospace" font-size="7">tulip_R</text>
<circle cx="195" cy="358" r="30" fill="#22c55e" opacity="0.08"/>
<circle cx="195" cy="358" r="15" fill="#22c55e" opacity="0.55" stroke="#22c55e" stroke-width="1.5"/>
<text x="200" y="353" fill="#f8fafc" font-family="Menlo, Consolas, monospace" font-size="7">go_side_L</text>
<circle cx="291" cy="358" r="30" fill="#22c55e" opacity="0.08"/>
<circle cx="291" cy="358" r="15" fill="#22c55e" opacity="0.55" stroke="#22c55e" stroke-width="1.5"/>
<text x="296" y="353" fill="#f8fafc" font-family="Menlo, Consolas, monospace" font-size="7">go_side_R</text>
<rect x="198" y="212.5" width="90" height="39" rx="3" fill="#111827" stroke="#f97316" stroke-width="2"/>
<text x="243" y="236" text-anchor="middle" fill="#fed7aa" font-family="Menlo, Consolas, monospace" font-size="12" font-weight="700">777</text>
<circle cx="81" cy="454" r="8.399999999999999" fill="#38bdf8" stroke="#e0f2fe" stroke-width="1.5"/>
<line x1="81" y1="454" x2="72" y2="438.4115427318801" stroke="#38bdf8" stroke-width="2" marker-end="url(#arrow)"/>
<defs><marker id="arrow" viewBox="0 0 10 10" refX="9" refY="5" markerWidth="4" markerHeight="4" orient="auto-start-reverse"><path d="M 0 0 L 10 5 L 0 10 z" fill="#38bdf8"/></marker></defs>
</svg>
