<svg xmlns="http://www.w3.org/2000/svg" width="486" height="550" viewBox="0 0 486 550" role="img" aria-label="stage_ai3_05 / direct / seed 60907239">
<rect width="486" height="550" fill="#0f172a"/>
<text x="18" y="20" fill="#e5e7eb" font-family="Menlo, Consolas, monospace" font-size="12">stage_ai3_05 / direct / seed 60907239</text>
<text x="18" y="32" fill="#94a3b8" font-family="Menlo, Consolas, monospace" font-size="9">pegs:106 pockets:7 events:2 roulettes:0</text>
<rect x="18" y="52" width="450" height="480" fill="#020617" stroke="#334155" stroke-width="1"/>
<ellipse cx="243" cy="292" rx="225" ry="240" fill="none" stroke="#22d3ee" stroke-width="2" opacity="0.8"/>
<line x1="123" y1="493" x2="141" y2="466" stroke="#64748b" stroke-width="2.5" stroke-linecap="round"/>
<line x1="138" y1="466" x2="102" y2="433" stroke="#22d3ee" stroke-width="2.5" stroke-linecap="round"/>
<line x1="102" y1="433" x2="81" y2="397" stroke="#22d3ee" stroke-width="2.5" stroke-linecap="round"/>
<line x1="81" y1="397" x2="66" y2="352" stroke="#22d3ee" stroke-width="2.5" stroke-linecap="round"/>
<line x1="66" y1="352" x2="57" y2="295" stroke="#22d3ee" stroke-width="2.5" stroke-linecap="round"/>
<line x1="57" y1="295" x2="57" y2="247" stroke="#22d3ee" stroke-width="2.5" stroke-linecap="round"/>
<line x1="57" y1="247" x2="75" y2="199" stroke="#22d3ee" stroke-width="2.5" stroke-linecap="round"/>
<line x1="75" y1="199" x2="93" y2="166" stroke="#22d3ee" stroke-width="2.5" stroke-linecap="round"/>
<line x1="384" y1="166" x2="417" y2="136" stroke="#ef4444" stroke-width="2.5" stroke-linecap="round"/>
<line x1="384" y1="289" x2="348" y2="322" stroke="#22d3ee" stroke-width="2.5" stroke-linecap="round"/>
<circle cx="271.5" cy="443.5" r="5.4" fill="#f59e0b" opacity="0.92"/>
<circle cx="214.5" cy="443.5" r="5.4" fill="#f59e0b" opacity="0.92"/>
<circle cx="186" cy="397" r="4.5" fill="#f59e0b" opacity="0.92"/>
<circle cx="144" cy="397" r="4.5" fill="#f59e0b" opacity="0.92"/>
<circle cx="177" cy="373" r="3.9000000000000004" fill="#d1d5db" opacity="0.92"/>
<circle cx="153" cy="373" r="3.9000000000000004" fill="#d1d5db" opacity="0.92"/>
<circle cx="300" cy="397" r="4.5" fill="#f59e0b" opacity="0.92"/>
<circle cx="342" cy="397" r="4.5" fill="#f59e0b" opacity="0.92"/>
<circle cx="309" cy="373" r="3.9000000000000004" fill="#d1d5db" opacity="0.92"/>
<circle cx="333" cy="373" r="3.9000000000000004" fill="#d1d5db" opacity="0.92"/>
<circle cx="204" cy="322" r="4.5" fill="#f59e0b" opacity="0.92"/>
<circle cx="162" cy="322" r="4.5" fill="#f59e0b" opacity="0.92"/>
<circle cx="210" cy="298" r="4.199999999999999" fill="#d1d5db" opacity="0.92"/>
<circle cx="219" cy="275.5" r="4.199999999999999" fill="#d1d5db" opacity="0.92"/>
<circle cx="228" cy="253" r="4.199999999999999" fill="#d1d5db" opacity="0.92"/>
<circle cx="156" cy="298" r="4.199999999999999" fill="#d1d5db" opacity="0.92"/>
<circle cx="147" cy="275.5" r="4.199999999999999" fill="#d1d5db" opacity="0.92"/>
<circle cx="138" cy="253" r="4.199999999999999" fill="#d1d5db" opacity="0.92"/>
<circle cx="282" cy="322" r="4.5" fill="#f59e0b" opacity="0.92"/>
<circle cx="324" cy="322" r="4.5" fill="#f59e0b" opacity="0.92"/>
<circle cx="276" cy="298" r="4.199999999999999" fill="#d1d5db" opacity="0.92"/>
<circle cx="267" cy="275.5" r="4.199999999999999" fill="#d1d5db" opacity="0.92"/>
<circle cx="258" cy="253" r="4.199999999999999" fill="#d1d5db" opacity="0.92"/>
<circle cx="330" cy="298" r="4.199999999999999" fill="#d1d5db" opacity="0.92"/>
<circle cx="339" cy="275.5" r="4.199999999999999" fill="#d1d5db" opacity="0.92"/>
<circle cx="348" cy="253" r="4.199999999999999" fill="#d1d5db" opacity="0.92"/>
<circle cx="159" cy="175" r="13.5" fill="#fb923c" opacity="0.92"/>
<circle cx="171" cy="142" r="3.9000000000000004" fill="#d1d5db" opacity="0.92"/>
<circle cx="184.5" cy="122.5" r="3.9000000000000004" fill="#d1d5db" opacity="0.92"/>
<circle cx="147" cy="142" r="3.9000000000000004" fill="#d1d5db" opacity="0.92"/>
<circle cx="133.5" cy="122.5" r="3.9000000000000004" fill="#d1d5db" opacity="0.92"/>
<circle cx="327" cy="175" r="13.5" fill="#fb923c" opacity="0.92"/>
<circle cx="315" cy="142" r="3.9000000000000004" fill="#d1d5db" opacity="0.92"/>
<circle cx="301.5" cy="122.5" r="3.9000000000000004" fill="#d1d5db" opacity="0.92"/>
<circle cx="339" cy="142" r="3.9000000000000004" fill="#d1d5db" opacity="0.92"/>
<circle cx="352.5" cy="122.5" r="3.9000000000000004" fill="#d1d5db" opacity="0.92"/>
<circle cx="207" cy="358" r="3.9000000000000004" fill="#d1d5db" opacity="0.92"/>
<circle cx="231" cy="382" r="3.9000000000000004" fill="#d1d5db" opacity="0.92"/>
<circle cx="255" cy="382" r="3.9000000000000004" fill="#d1d5db" opacity="0.92"/>
<circle cx="279" cy="358" r="3.9000000000000004" fill="#d1d5db" opacity="0.92"/>
<circle cx="243" cy="232" r="3.9000000000000004" fill="#d1d5db" opacity="0.92"/>
<circle cx="243" cy="209.5" r="3.9000000000000004" fill="#d1d5db" opacity="0.92"/>
<circle cx="243" cy="187" r="3.9000000000000004" fill="#d1d5db" opacity="0.92"/>
<circle cx="243" cy="337" r="3.9000000000000004" fill="#d1d5db" opacity="0.92"/>
<circle cx="256.5" cy="314.5" r="3.9000000000000004" fill="#d1d5db" opacity="0.92"/>
<circle cx="229.5" cy="314.5" r="3.9000000000000004" fill="#d1d5db" opacity="0.92"/>
<circle cx="201" cy="208" r="3.9000000000000004" fill="#d1d5db" opacity="0.92"/>
<circle cx="201" cy="185.5" r="3.9000000000000004" fill="#d1d5db" opacity="0.92"/>
<circle cx="201" cy="163" r="3.9000000000000004" fill="#d1d5db" opacity="0.92"/>
<circle cx="285" cy="208" r="3.9000000000000004" fill="#d1d5db" opacity="0.92"/>
<circle cx="285" cy="185.5" r="3.9000000000000004" fill="#d1d5db" opacity="0.92"/>
<circle cx="285" cy="163" r="3.9000000000000004" fill="#d1d5db" opacity="0.92"/>
<circle cx="222.46015696790613" cy="81.6586191296102" r="3.9000000000000004" fill="#d1d5db" opacity="0.92"/>
<circle cx="263.53984303209387" cy="81.6586191296102" r="3.9000000000000004" fill="#d1d5db" opacity="0.92"/>
<circle cx="190.7237598461483" cy="88.12185496282703" r="3.9000000000000004" fill="#d1d5db" opacity="0.92"/>
<circle cx="295.2762401538517" cy="88.12185496282703" r="3.9000000000000004" fill="#d1d5db" opacity="0.92"/>
<circle cx="160.39980463717043" cy="100.09363609889658" r="3.9000000000000004" fill="#d1d5db" opacity="0.92"/>
<circle cx="325.6001953628296" cy="100.09363609889658" r="3.9000000000000004" fill="#d1d5db" opacity="0.92"/>
<circle cx="243" cy="106" r="3.9000000000000004" fill="#d1d5db" opacity="0.92"/>
<circle cx="265.5" cy="106" r="3.9000000000000004" fill="#d1d5db" opacity="0.92"/>
<circle cx="220.5" cy="106" r="3.9000000000000004" fill="#d1d5db" opacity="0.92"/>
<circle cx="254.39999999999998" cy="125.5" r="3.9000000000000004" fill="#d1d5db" opacity="0.92"/>
<circle cx="231.89999999999998" cy="125.5" r="3.9000000000000004" fill="#d1d5db" opacity="0.92"/>
<circle cx="276.9" cy="125.5" r="3.9000000000000004" fill="#d1d5db" opacity="0.92"/>
<circle cx="209.39999999999998" cy="125.5" r="3.9000000000000004" fill="#d1d5db" opacity="0.92"/>
<circle cx="243" cy="145" r="3.9000000000000004" fill="#d1d5db" opacity="0.92"/>
<circle cx="265.5" cy="145" r="3.9000000000000004" fill="#d1d5db" opacity="0.92"/>
<circle cx="220.5" cy="145" r="3.9000000000000004" fill="#d1d5db" opacity="0.92"/>
<circle cx="254.39999999999998" cy="164.79999999999998" r="3.9000000000000004" fill="#d1d5db" opacity="0.92"/>
<circle cx="231.89999999999998" cy="164.79999999999998" r="3.9000000000000004" fill="#d1d5db" opacity="0.92"/>
<circle cx="344.4" cy="203.79999999999998" r="3.9000000000000004" fill="#d1d5db" opacity="0.92"/>
<circle cx="141.89999999999998" cy="203.79999999999998" r="3.9000000000000004" fill="#d1d5db" opacity="0.92"/>
<circle cx="265.5" cy="223.29999999999998" r="3.9000000000000004" fill="#d1d5db" opacity="0.92"/>
<circle cx="220.5" cy="223.29999999999998" r="3.9000000000000004" fill="#d1d5db" opacity="0.92"/>
<circle cx="310.5" cy="223.29999999999998" r="3.9000000000000004" fill="#d1d5db" opacity="0.92"/>
<circle cx="175.5" cy="223.29999999999998" r="3.9000000000000004" fill="#d1d5db" opacity="0.92"/>
<circle cx="333" cy="223.29999999999998" r="3.9000000000000004" fill="#d1d5db" opacity="0.92"/>
<circle cx="153" cy="223.29999999999998" r="3.9000000000000004" fill="#d1d5db" opacity="0.92"/>
<circle cx="355.5" cy="223.29999999999998" r="3.9000000000000004" fill="#d1d5db" opacity="0.92"/>
<circle cx="130.5" cy="223.29999999999998" r="3.9000000000000004" fill="#d1d5db" opacity="0.92"/>
<circle cx="299.4" cy="243.10000000000002" r="3.9000000000000004" fill="#d1d5db" opacity="0.92"/>
<circle cx="186.89999999999998" cy="243.10000000000002" r="3.9000000000000004" fill="#d1d5db" opacity="0.92"/>
<circle cx="321.9" cy="243.10000000000002" r="3.9000000000000004" fill="#d1d5db" opacity="0.92"/>
<circle cx="164.39999999999998" cy="243.10000000000002" r="3.9000000000000004" fill="#d1d5db" opacity="0.92"/>
<circle cx="288" cy="262.6" r="3.9000000000000004" fill="#d1d5db" opacity="0.92"/>
<circle cx="198" cy="262.6" r="3.9000000000000004" fill="#d1d5db" opacity="0.92"/>
<circle cx="310.5" cy="262.6" r="3.9000000000000004" fill="#d1d5db" opacity="0.92"/>
<circle cx="175.5" cy="262.6" r="3.9000000000000004" fill="#d1d5db" opacity="0.92"/>
<circle cx="299.4" cy="282.1" r="3.9000000000000004" fill="#d1d5db" opacity="0.92"/>
<circle cx="186.89999999999998" cy="282.1" r="3.9000000000000004" fill="#d1d5db" opacity="0.92"/>
<circle cx="355.5" cy="340.9" r="3.9000000000000004" fill="#d1d5db" opacity="0.92"/>
<circle cx="130.5" cy="340.9" r="3.9000000000000004" fill="#d1d5db" opacity="0.92"/>
<circle cx="276.9" cy="399.70000000000005" r="3.9000000000000004" fill="#d1d5db" opacity="0.92"/>
<circle cx="209.39999999999998" cy="399.70000000000005" r="3.9000000000000004" fill="#d1d5db" opacity="0.92"/>
<circle cx="265.5" cy="419.20000000000005" r="3.9000000000000004" fill="#d1d5db" opacity="0.92"/>
<circle cx="220.5" cy="419.20000000000005" r="3.9000000000000004" fill="#d1d5db" opacity="0.92"/>
<circle cx="288" cy="419.20000000000005" r="3.9000000000000004" fill="#d1d5db" opacity="0.92"/>
<circle cx="198" cy="419.20000000000005" r="3.9000000000000004" fill="#d1d5db" opacity="0.92"/>
<circle cx="355.5" cy="419.20000000000005" r="3.9000000000000004" fill="#d1d5db" opacity="0.92"/>
<circle cx="130.5" cy="419.20000000000005" r="3.9000000000000004" fill="#d1d5db" opacity="0.92"/>
<circle cx="299.4" cy="438.70000000000005" r="3.9000000000000004" fill="#d1d5db" opacity="0.92"/>
<circle cx="186.89999999999998" cy="438.70000000000005" r="3.9000000000000004" fill="#d1d5db" opacity="0.92"/>
<circle cx="344.4" cy="438.70000000000005" r="3.9000000000000004" fill="#d1d5db" opacity="0.92"/>
<circle cx="141.89999999999998" cy="438.70000000000005" r="3.9000000000000004" fill="#d1d5db" opacity="0.92"/>
<circle cx="310.5" cy="458.5" r="3.9000000000000004" fill="#d1d5db" opacity="0.92"/>
<circle cx="175.5" cy="458.5" r="3.9000000000000004" fill="#d1d5db" opacity="0.92"/>
<circle cx="243" cy="526" r="36" fill="#111827" opacity="0.08"/>
<circle cx="243" cy="526" r="24" fill="#111827" opacity="0.55" stroke="#111827" stroke-width="1.5"/>
<circle cx="120" cy="475" r="33" fill="#60a5fa" opacity="0.08"/>
<circle cx="120" cy="475" r="16.5" fill="#60a5fa" opacity="0.55" stroke="#60a5fa" stroke-width="1.5"/>
<circle cx="243" cy="454" r="36" fill="#ec4899" opacity="0.08"/>
<circle cx="243" cy="454" r="19.5" fill="#ec4899" opacity="0.55" stroke="#ec4899" stroke-width="1.5"/>
<text x="248" y="449" fill="#f8fafc" font-family="Menlo, Consolas, monospace" font-size="7">attacker</text>
<circle cx="165" cy="409" r="30" fill="#ec4899" opacity="0.08"/>
<circle cx="165" cy="409" r="15" fill="#ec4899" opacity="0.55" stroke="#ec4899" stroke-width="1.5"/>
<text x="170" y="404" fill="#f8fafc" font-family="Menlo, Consolas, monospace" font-size="7">tulip_L</text>
<circle cx="321" cy="409" r="30" fill="#ec4899" opacity="0.08"/>
<circle cx="321" cy="409" r="15" fill="#ec4899" opacity="0.55" stroke="#ec4899" stroke-width="1.5"/>
<text x="326" y="404" fill="#f8fafc" font-family="Menlo, Consolas, monospace" font-size="7">tulip_R</text>
<circle cx="183" cy="334" r="30" fill="#22c55e" opacity="0.08"/>
<circle cx="183" cy="334" r="15" fill="#22c55e" opacity="0.55" stroke="#22c55e" stroke-width="1.5"/>
<text x="188" y="329" fill="#f8fafc" font-family="Menlo, Consolas, monospace" font-size="7">go_side_L</text>
<circle cx="303" cy="334" r="30" fill="#22c55e" opacity="0.08"/>
<circle cx="303" cy="334" r="15" fill="#22c55e" opacity="0.55" stroke="#22c55e" stroke-width="1.5"/>
<text x="308" y="329" fill="#f8fafc" font-family="Menlo, Consolas, monospace" font-size="7">go_side_R</text>
<circle cx="81" cy="454" r="8.399999999999999" fill="#38bdf8" stroke="#e0f2fe" stroke-width="1.5"/>
<line x1="81" y1="454" x2="72" y2="438.4115427318801" stroke="#38bdf8" stroke-width="2" marker-end="url(#arrow)"/>
<defs><marker id="arrow" viewBox="0 0 10 10" refX="9" refY="5" markerWidth="4" markerHeight="4" orient="auto-start-reverse"><path d="M 0 0 L 10 5 L 0 10 z" fill="#38bdf8"/></marker></defs>
</svg>
