<svg xmlns="http://www.w3.org/2000/svg" width="486" height="550" viewBox="0 0 486 550" role="img" aria-label="stage_ai_08 / seven / seed 20261389">
<rect width="486" height="550" fill="#0f172a"/>
<text x="18" y="20" fill="#e5e7eb" font-family="Menlo, Consolas, monospace" font-size="12">stage_ai_08 / seven / seed 20261389</text>
<text x="18" y="32" fill="#94a3b8" font-family="Menlo, Consolas, monospace" font-size="9">pegs:83 pockets:6 events:2 roulettes:1</text>
<rect x="18" y="52" width="450" height="480" fill="#020617" stroke="#334155" stroke-width="1"/>
<ellipse cx="243" cy="292" rx="225" ry="240" fill="none" stroke="#22d3ee" stroke-width="2" opacity="0.8"/>
<line x1="123" y1="493" x2="141" y2="466" stroke="#64748b" stroke-width="2.5" stroke-linecap="round"/>
<line x1="138" y1="466" x2="102" y2="433" stroke="#22d3ee" stroke-width="2.5" stroke-linecap="round"/>
<line x1="102" y1="433" x2="81" y2="397" stroke="#22d3ee" stroke-width="2.5" stroke-linecap="round"/>
<line x1="81" y1="397" x2="66" y2="352" stroke="#22d3ee" stroke-width="2.5" stroke-linecap="round"/>
<line x1="66" y1="352" x2="57" y2="295" stroke="#22d3ee" stroke-width="2.5" stroke-linecap="round"/>
<line x1="57" y1="295" x2="57" y2="247" stroke="#22d3ee" stroke-width="2.5" stroke-linecap="round"/>
<line x1="57" y1="247" x2="75" y2="199" stroke="#22d3ee" stroke-width="2.5" stroke-linecap="round"/>
<line x1="75" y1="199" x2="93" y2="166" stroke="#22d3ee" stroke-width="2.5" stroke-linecap="round"/>
<line x1="384" y1="166" x2="417" y2="136" stroke="#ef4444" stroke-width="2.5" stroke-linecap="round"/>
<circle cx="243" cy="178" r="13.5" fill="#fb923c" opacity="0.92"/>
<circle cx="120" cy="172" r="4.199999999999999" fill="#d1d5db" opacity="0.92"/>
<circle cx="144" cy="172" r="4.199999999999999" fill="#d1d5db" opacity="0.92"/>
<circle cx="168" cy="172" r="4.199999999999999" fill="#d1d5db" opacity="0.92"/>
<circle cx="192" cy="172" r="4.199999999999999" fill="#d1d5db" opacity="0.92"/>
<circle cx="312" cy="172" r="4.199999999999999" fill="#d1d5db" opacity="0.92"/>
<circle cx="336" cy="172" r="4.199999999999999" fill="#d1d5db" opacity="0.92"/>
<circle cx="132" cy="196" r="4.199999999999999" fill="#d1d5db" opacity="0.92"/>
<circle cx="156" cy="196" r="4.199999999999999" fill="#d1d5db" opacity="0.92"/>
<circle cx="180" cy="196" r="4.199999999999999" fill="#d1d5db" opacity="0.92"/>
<circle cx="204" cy="196" r="4.199999999999999" fill="#d1d5db" opacity="0.92"/>
<circle cx="276" cy="196" r="4.199999999999999" fill="#d1d5db" opacity="0.92"/>
<circle cx="300" cy="196" r="4.199999999999999" fill="#d1d5db" opacity="0.92"/>
<circle cx="324" cy="196" r="4.199999999999999" fill="#d1d5db" opacity="0.92"/>
<circle cx="348" cy="196" r="4.199999999999999" fill="#d1d5db" opacity="0.92"/>
<circle cx="120" cy="220" r="4.199999999999999" fill="#d1d5db" opacity="0.92"/>
<circle cx="144" cy="220" r="4.199999999999999" fill="#d1d5db" opacity="0.92"/>
<circle cx="312" cy="220" r="4.199999999999999" fill="#d1d5db" opacity="0.92"/>
<circle cx="360" cy="220" r="4.199999999999999" fill="#d1d5db" opacity="0.92"/>
<circle cx="384" cy="220" r="4.199999999999999" fill="#d1d5db" opacity="0.92"/>
<circle cx="156" cy="244" r="4.199999999999999" fill="#d1d5db" opacity="0.92"/>
<circle cx="324" cy="244" r="4.199999999999999" fill="#d1d5db" opacity="0.92"/>
<circle cx="348" cy="244" r="4.199999999999999" fill="#d1d5db" opacity="0.92"/>
<circle cx="372" cy="244" r="4.199999999999999" fill="#d1d5db" opacity="0.92"/>
<circle cx="396" cy="244" r="4.199999999999999" fill="#d1d5db" opacity="0.92"/>
<circle cx="120" cy="268" r="4.199999999999999" fill="#d1d5db" opacity="0.92"/>
<circle cx="144" cy="268" r="4.199999999999999" fill="#d1d5db" opacity="0.92"/>
<circle cx="168" cy="268" r="4.199999999999999" fill="#d1d5db" opacity="0.92"/>
<circle cx="336" cy="268" r="4.199999999999999" fill="#d1d5db" opacity="0.92"/>
<circle cx="360" cy="268" r="4.199999999999999" fill="#d1d5db" opacity="0.92"/>
<circle cx="384" cy="268" r="4.199999999999999" fill="#d1d5db" opacity="0.92"/>
<circle cx="132" cy="292" r="4.199999999999999" fill="#d1d5db" opacity="0.92"/>
<circle cx="156" cy="292" r="4.199999999999999" fill="#d1d5db" opacity="0.92"/>
<circle cx="180" cy="292" r="4.199999999999999" fill="#d1d5db" opacity="0.92"/>
<circle cx="204" cy="292" r="4.199999999999999" fill="#d1d5db" opacity="0.92"/>
<circle cx="228" cy="292" r="4.199999999999999" fill="#d1d5db" opacity="0.92"/>
<circle cx="252" cy="292" r="4.199999999999999" fill="#d1d5db" opacity="0.92"/>
<circle cx="276" cy="292" r="4.199999999999999" fill="#d1d5db" opacity="0.92"/>
<circle cx="300" cy="292" r="4.199999999999999" fill="#d1d5db" opacity="0.92"/>
<circle cx="324" cy="292" r="4.199999999999999" fill="#d1d5db" opacity="0.92"/>
<circle cx="348" cy="292" r="4.199999999999999" fill="#d1d5db" opacity="0.92"/>
<circle cx="396" cy="292" r="4.199999999999999" fill="#d1d5db" opacity="0.92"/>
<circle cx="120" cy="316" r="4.199999999999999" fill="#d1d5db" opacity="0.92"/>
<circle cx="144" cy="316" r="4.199999999999999" fill="#d1d5db" opacity="0.92"/>
<circle cx="168" cy="316" r="4.199999999999999" fill="#d1d5db" opacity="0.92"/>
<circle cx="216" cy="316" r="4.199999999999999" fill="#d1d5db" opacity="0.92"/>
<circle cx="312" cy="316" r="4.199999999999999" fill="#d1d5db" opacity="0.92"/>
<circle cx="336" cy="316" r="4.199999999999999" fill="#d1d5db" opacity="0.92"/>
<circle cx="360" cy="316" r="4.199999999999999" fill="#d1d5db" opacity="0.92"/>
<circle cx="384" cy="316" r="4.199999999999999" fill="#d1d5db" opacity="0.92"/>
<circle cx="132" cy="340" r="4.199999999999999" fill="#d1d5db" opacity="0.92"/>
<circle cx="156" cy="340" r="4.199999999999999" fill="#d1d5db" opacity="0.92"/>
<circle cx="180" cy="340" r="4.199999999999999" fill="#d1d5db" opacity="0.92"/>
<circle cx="204" cy="340" r="4.199999999999999" fill="#d1d5db" opacity="0.92"/>
<circle cx="276" cy="340" r="4.199999999999999" fill="#d1d5db" opacity="0.92"/>
<circle cx="300" cy="340" r="4.199999999999999" fill="#d1d5db" opacity="0.92"/>
<circle cx="324" cy="340" r="4.199999999999999" fill="#d1d5db" opacity="0.92"/>
<circle cx="348" cy="340" r="4.199999999999999" fill="#d1d5db" opacity="0.92"/>
<circle cx="372" cy="340" r="4.199999999999999" fill="#d1d5db" opacity="0.92"/>
<circle cx="396" cy="340" r="4.199999999999999" fill="#d1d5db" opacity="0.92"/>
<circle cx="192" cy="364" r="4.199999999999999" fill="#d1d5db" opacity="0.92"/>
<circle cx="384" cy="364" r="4.199999999999999" fill="#d1d5db" opacity="0.92"/>
<circle cx="204" cy="388" r="4.199999999999999" fill="#d1d5db" opacity="0.92"/>
<circle cx="396" cy="388" r="4.199999999999999" fill="#d1d5db" opacity="0.92"/>
<circle cx="288" cy="412" r="4.199999999999999" fill="#d1d5db" opacity="0.92"/>
<circle cx="312" cy="412" r="4.199999999999999" fill="#d1d5db" opacity="0.92"/>
<circle cx="156" cy="436" r="4.199999999999999" fill="#d1d5db" opacity="0.92"/>
<circle cx="300" cy="436" r="4.199999999999999" fill="#d1d5db" opacity="0.92"/>
<circle cx="324" cy="436" r="4.199999999999999" fill="#d1d5db" opacity="0.92"/>
<circle cx="348" cy="436" r="4.199999999999999" fill="#d1d5db" opacity="0.92"/>
<circle cx="168" cy="460" r="4.199999999999999" fill="#d1d5db" opacity="0.92"/>
<circle cx="288" cy="460" r="4.199999999999999" fill="#d1d5db" opacity="0.92"/>
<circle cx="312" cy="460" r="4.199999999999999" fill="#d1d5db" opacity="0.92"/>
<circle cx="336" cy="460" r="4.199999999999999" fill="#d1d5db" opacity="0.92"/>
<circle cx="360" cy="460" r="4.199999999999999" fill="#d1d5db" opacity="0.92"/>
<circle cx="234" cy="371.5" r="4.800000000000001" fill="#f59e0b" opacity="0.92"/>
<circle cx="276" cy="371.5" r="4.800000000000001" fill="#f59e0b" opacity="0.92"/>
<circle cx="123" cy="383.5" r="4.800000000000001" fill="#f59e0b" opacity="0.92"/>
<circle cx="165" cy="383.5" r="4.800000000000001" fill="#f59e0b" opacity="0.92"/>
<circle cx="321" cy="383.5" r="4.800000000000001" fill="#f59e0b" opacity="0.92"/>
<circle cx="363" cy="383.5" r="4.800000000000001" fill="#f59e0b" opacity="0.92"/>
<circle cx="201" cy="445" r="5.4" fill="#f59e0b" opacity="0.92"/>
<circle cx="255" cy="445" r="5.4" fill="#f59e0b" opacity="0.92"/>
<circle cx="243" cy="526" r="36" fill="#111827" opacity="0.08"/>
<circle cx="243" cy="526" r="24" fill="#111827" opacity="0.55" stroke="#111827" stroke-width="1.5"/>
<circle cx="120" cy="475" r="33" fill="#60a5fa" opacity="0.08"/>
<circle cx="120" cy="475" r="16.5" fill="#60a5fa" opacity="0.55" stroke="#60a5fa" stroke-width="1.5"/>
<circle cx="255" cy="382" r="30" fill="#22c55e" opacity="0.08"/>
<circle cx="255" cy="382" r="15" fill="#22c55e" opacity="0.55" stroke="#22c55e" stroke-width="1.5"/>
<text x="260" y="377" fill="#f8fafc" font-family="Menlo, Consolas, monospace" font-size="7">go_0</text>
<circle cx="228" cy="454" r="36" fill="#ec4899" opacity="0.08"/>
<circle cx="228" cy="454" r="19.5" fill="#ec4899" opacity="0.55" stroke="#ec4899" stroke-width="1.5"/>
<text x="233" y="449" fill="#f8fafc" font-family="Menlo, Consolas, monospace" font-size="7">attacker</text>
<circle cx="144" cy="394" r="30" fill="#ec4899" opacity="0.08"/>
<circle cx="144" cy="394" r="15" fill="#ec4899" opacity="0.55" stroke="#ec4899" stroke-width="1.5"/>
<text x="149" y="389" fill="#f8fafc" font-family="Menlo, Consolas, monospace" font-size="7">tulip_L</text>
<circle cx="342" cy="394" r="30" fill="#ec4899" opacity="0.08"/>
<circle cx="342" cy="394" r="15" fill="#ec4899" opacity="0.55" stroke="#ec4899" stroke-width="1.5"/>
<text x="347" y="389" fill="#f8fafc" font-family="Menlo, Consolas, monospace" font-size="7">tulip_R</text>
<rect x="198" y="221.5" width="90" height="39" rx="3" fill="#111827" stroke="#f97316" stroke-width="2"/>
<text x="243" y="245" text-anchor="middle" fill="#fed7aa" font-family="Menlo, Consolas, monospace" font-size="12" font-weight="700">777</text>
<circle cx="81" cy="454" r="8.399999999999999" fill="#38bdf8" stroke="#e0f2fe" stroke-width="1.5"/>
<line x1="81" y1="454" x2="72" y2="438.4115427318801" stroke="#38bdf8" stroke-width="2" marker-end="url(#arrow)"/>
<defs><marker id="arrow" viewBox="0 0 10 10" refX="9" refY="5" markerWidth="4" markerHeight="4" orient="auto-start-reverse"><path d="M 0 0 L 10 5 L 0 10 z" fill="#38bdf8"/></marker></defs>
</svg>
